<svg width="17" height="16" viewBox="0 0 17 16" fill="none" xmlns="http://www.w3.org/2000/svg">
<path d="M11.3199 5.96C11.5095 5.78336 11.7602 5.68719 12.0193 5.69177C12.2784 5.69634 12.5255 5.80129 12.7088 5.9845C12.892 6.16772 12.9969 6.4149 13.0015 6.67397C13.0061 6.93304 12.9099 7.18377 12.7333 7.37333L8.7806 11.3267C8.58058 11.5266 8.30938 11.6388 8.0266 11.6388C7.74382 11.6388 7.47262 11.5266 7.2726 11.3267L3.31927 7.37333C3.1372 7.18464 3.03652 6.93199 3.03892 6.6698C3.04132 6.4076 3.14661 6.15684 3.33211 5.97152C3.5176 5.78619 3.76847 5.68114 4.03066 5.67899C4.29286 5.67683 4.54542 5.77775 4.73393 5.96L8.0266 9.252L11.3199 5.95867V5.96Z" fill="white"/>
</svg>
