<svg width="49" height="35" viewBox="0 0 49 35" fill="none" xmlns="http://www.w3.org/2000/svg">
<path d="M24.3252 18.5758C19.4861 18.5145 15.2127 16.6246 11.7074 12.9687C11.3115 12.5557 10.9028 12.1545 10.5005 11.7468C9.13668 10.3668 9.1711 8.3307 10.5887 7.02277C11.8085 5.8977 12.9637 4.68765 14.2759 3.68304C17.5091 1.21024 21.221 0.160457 25.2782 0.333628C30.0893 0.539067 34.1035 2.48375 37.4249 5.92782C37.81 6.32686 38.2122 6.7087 38.5995 7.10559C39.944 8.48236 39.902 10.4356 38.5371 11.8006C37.1334 13.2053 35.7696 14.6466 34.0873 15.7394C31.1897 17.6217 28.0113 18.5424 24.3252 18.5758ZM34.6273 8.24035C33.5883 7.20778 32.5675 6.09346 31.4403 5.10068C30.3012 4.09822 28.9804 3.36036 27.4864 2.96884C29.0535 3.88095 30.4852 4.9501 31.6855 6.31718C32.8805 7.67889 33.7926 9.19871 34.3853 10.9078C32.4137 7.35728 29.9108 4.48974 28.7782 4.31657C29.5924 5.28568 30.5594 6.33224 31.4048 7.47022C32.261 8.62111 32.7859 9.95163 33.1042 11.2036C32.6148 10.2302 32.1115 9.10943 31.5005 8.05105C30.8917 6.99696 30.0904 6.08378 29.0277 5.28783C29.6268 6.17735 30.2292 6.93673 30.6788 7.77892C31.1208 8.60713 31.4758 9.4988 31.7436 10.4002C32.0082 11.2886 32.1147 12.2233 32.2911 13.1386C32.2395 13.1483 32.1878 13.158 32.1362 13.1687C31.7705 10.3152 30.6271 7.48206 29.4117 6.63986C30.7885 8.94917 31.3252 11.3219 31.0369 13.8711C31.023 11.7253 30.8154 9.62787 29.5472 7.7886C30.3012 9.79029 30.4529 11.8275 29.9721 13.9066C30.1657 12.2168 30.1711 10.5464 29.4967 8.86742C29.4967 10.0076 29.5365 11.0703 29.4859 12.1286C29.4343 13.201 28.89 14.6832 28.4684 15.1285C29.1751 13.4559 29.5419 11.75 29.1783 9.94948C29.0589 10.554 29.0288 11.1735 28.8965 11.7715C28.7631 12.3782 28.5706 12.9805 28.3307 13.5538C28.1006 14.1024 27.7736 14.61 27.4896 15.1349C27.4455 15.1113 27.4014 15.0887 27.3573 15.065C28.1543 13.7313 28.747 12.3362 28.6954 10.7454C28.3361 11.9576 27.9209 13.1375 27.1218 14.1669C27.0841 14.1099 27.0637 14.0905 27.0669 14.0819C27.1121 13.9862 27.1573 13.8883 27.211 13.7969C27.9177 12.5987 28.2501 11.2961 28.3006 9.91398C28.4232 6.55381 26.5657 3.77662 23.4056 2.68919C20.7241 1.7674 18.19 2.22345 15.8011 3.66583C14.0199 4.74143 12.6076 6.24189 11.162 7.70685C10.1972 8.68457 10.1574 10.0689 11.1147 11.0638C11.5116 11.4768 11.93 11.8673 12.328 12.2792C14.0124 14.0228 15.9248 15.4361 18.1814 16.3568C18.5116 16.4913 18.845 16.6214 19.1817 16.7376C19.5194 16.8537 19.8615 16.9592 20.2057 17.0527C20.5273 17.1399 20.8553 17.2065 21.1802 17.2829C19.7797 16.5719 18.3836 15.8922 17.0767 15.0693C15.7548 14.2357 14.6341 13.1429 13.794 12.12C14.975 13.0085 16.2948 14.0991 17.7135 15.0403C19.1473 15.9911 20.766 16.558 22.4806 16.8301C20.6714 16.1643 19.0053 15.25 17.5199 14.026C16.0248 12.7934 14.8105 11.3252 13.8951 9.61712C16.7842 13.2225 19.6248 15.5566 21.4716 15.7609C18.4073 14.0669 16.227 11.6683 14.9471 8.47913C16.2475 10.9842 17.9673 13.1096 20.4606 14.5412C18.2298 12.7116 16.7788 10.3894 16.0205 7.62296C16.8487 9.85375 18.0125 11.8576 19.9239 13.3624C18.3987 11.4844 17.3564 9.39769 17.0176 6.88402C17.3521 7.88433 17.6167 8.80289 17.9673 9.68703C18.3244 10.5873 18.8321 11.4091 19.5474 12.0921C18.2922 9.91398 17.806 7.58531 18.0577 5.07594C18.1782 8.14355 18.7095 10.2571 19.5442 11.0165C18.8407 8.36942 18.6826 7.02277 18.9795 5.98375C18.9192 7.37557 19.0612 8.66736 19.6055 9.89355C19.6066 9.3622 19.5205 8.83731 19.5151 8.31134C19.5087 7.75956 19.5528 7.2024 19.6248 6.65384C19.6915 6.14509 19.826 5.64601 19.9303 5.14155C19.9249 5.79659 19.7819 6.42689 19.7496 7.06365C19.7173 7.68749 19.7969 8.31779 19.8281 8.94487C19.8873 8.94487 19.9475 8.94594 20.0067 8.94594C20.0153 7.3433 20.3702 5.83746 21.2339 4.47361C20.7295 5.6288 20.267 6.7926 20.3616 8.11236C20.7725 7.09699 21.1662 6.1225 21.5609 5.14801C21.3297 6.20424 20.9564 7.21961 20.8446 8.26294C20.5477 11.0122 21.3684 13.4086 23.6702 15.0446C26.5485 17.0893 29.6311 17.0119 32.7009 15.4565C34.8747 14.3541 36.5268 12.5922 38.1477 10.8282C38.9329 9.97422 38.8426 8.70286 38.0509 7.84238C37.5303 7.27661 36.9656 6.75172 36.43 6.19994C34.4864 4.1961 32.1781 2.77739 29.5289 1.91798C28.875 1.70609 28.1931 1.57809 27.524 1.4103C28.2027 1.80935 28.9234 2.06642 29.6075 2.3977C30.298 2.73114 30.9746 3.10437 31.6167 3.5217C32.2588 3.94011 32.8762 4.40477 33.457 4.90492C34.0153 5.38571 34.5111 5.93857 34.794 6.22145C33.7033 5.44595 32.389 4.43273 30.9961 3.53891C29.4472 2.54398 27.0798 1.81903 26.3011 1.99543C29.8323 3.14739 32.6234 5.20716 34.6273 8.24035Z" fill="url(#paint0_linear_109_5295)"/>
<path d="M42.8707 27.4403H48.4548V28.6066H44.2006V29.9156H47.9681V31.0106H44.2006V32.8356H48.5429V33.9978H42.8707V27.4403Z" fill="url(#paint1_linear_109_5295)"/>
<path d="M34.5846 32.0471C34.8223 32.1813 35.0629 32.303 35.3062 32.4121C35.5523 32.5184 35.8068 32.6093 36.0698 32.6848C36.3327 32.7575 36.6082 32.8134 36.8963 32.8526C37.1871 32.8917 37.4962 32.9113 37.8235 32.9113C38.2178 32.9113 38.5535 32.8862 38.8304 32.8358C39.1073 32.7827 39.3324 32.7113 39.5058 32.6218C39.682 32.5295 39.8093 32.4205 39.8876 32.2946C39.9687 32.1687 40.0093 32.0317 40.0093 31.8834C40.0093 31.6457 39.91 31.4583 39.7114 31.3213C39.5128 31.1814 39.2066 31.1115 38.7926 31.1115C38.6108 31.1115 38.4192 31.1241 38.2178 31.1492C38.0164 31.1716 37.8123 31.1968 37.6053 31.2248C37.4011 31.2527 37.1983 31.2793 36.997 31.3045C36.7984 31.3268 36.611 31.338 36.4348 31.338C36.1411 31.338 35.8586 31.3003 35.5873 31.2248C35.3188 31.1492 35.0796 31.036 34.8699 30.8849C34.6629 30.7339 34.4979 30.5451 34.3748 30.3185C34.2517 30.092 34.1902 29.8277 34.1902 29.5256C34.1902 29.3466 34.214 29.169 34.2615 28.9928C34.3119 28.8166 34.3902 28.6488 34.4965 28.4893C34.6056 28.3271 34.7454 28.1775 34.916 28.0404C35.0866 27.9006 35.2922 27.7803 35.5327 27.6796C35.7761 27.5789 36.0558 27.5006 36.3718 27.4447C36.6907 27.3859 37.0529 27.3566 37.4585 27.3566C37.7521 27.3566 38.0472 27.3733 38.3437 27.4069C38.6402 27.4377 38.9283 27.4824 39.2079 27.5412C39.4904 27.5999 39.7617 27.6712 40.0219 27.7551C40.282 27.8362 40.5239 27.9271 40.7477 28.0278L40.1645 29.1019C39.9799 29.0208 39.7813 28.9466 39.5688 28.8795C39.3562 28.8096 39.1338 28.7495 38.9017 28.6991C38.6695 28.6488 38.429 28.6096 38.1801 28.5816C37.9339 28.5509 37.6822 28.5355 37.4249 28.5355C37.0585 28.5355 36.7564 28.5621 36.5187 28.6152C36.2837 28.6683 36.0963 28.7369 35.9565 28.8208C35.8166 28.9019 35.7187 28.9942 35.6628 29.0977C35.6097 29.1984 35.5831 29.2991 35.5831 29.3997C35.5831 29.5955 35.6712 29.7564 35.8474 29.8822C36.0236 30.0053 36.2921 30.0668 36.6529 30.0668C36.7984 30.0668 36.9648 30.057 37.1522 30.0375C37.3424 30.0151 37.541 29.9913 37.7479 29.9661C37.9577 29.941 38.1703 29.9186 38.3856 29.899C38.6038 29.8766 38.815 29.8654 39.0192 29.8654C39.4051 29.8654 39.7464 29.9088 40.0428 29.9955C40.3421 30.0822 40.5924 30.2067 40.7938 30.3689C40.9952 30.5283 41.1476 30.7227 41.2511 30.9521C41.3546 31.1786 41.4064 31.4331 41.4064 31.7156C41.4064 32.0932 41.3183 32.4302 41.142 32.7267C40.9686 33.0204 40.7197 33.2693 40.3953 33.4735C40.0736 33.6749 39.6848 33.8287 39.2289 33.935C38.773 34.0385 38.2654 34.0902 37.706 34.0902C37.3368 34.0902 36.976 34.0665 36.6236 34.0189C36.2711 33.9742 35.9327 33.9098 35.6083 33.8259C35.2866 33.7392 34.9789 33.6371 34.6853 33.5197C34.3944 33.3994 34.1245 33.2679 33.8755 33.1253L34.5846 32.0471Z" fill="url(#paint2_linear_109_5295)"/>
<path d="M26.4161 27.4403H29.7515C30.2549 27.4403 30.6913 27.4934 31.0605 27.5997C31.4297 27.7032 31.7359 27.8543 31.9793 28.0528C32.2226 28.2514 32.403 28.4934 32.5205 28.7787C32.6407 29.0639 32.7009 29.387 32.7009 29.7478C32.7009 29.9911 32.6715 30.2233 32.6128 30.4442C32.554 30.6624 32.4631 30.8638 32.3401 31.0484C32.2198 31.233 32.0674 31.398 31.8828 31.5434C31.6982 31.6861 31.4814 31.805 31.2325 31.9001L32.6589 33.9978H31.0311L29.7976 32.135H29.7599L27.7461 32.1308V33.9978H26.4161V27.4403ZM29.785 30.9813C30.0368 30.9813 30.2563 30.9519 30.4437 30.8932C30.6339 30.8344 30.7919 30.7519 30.9178 30.6456C31.0465 30.5393 31.1416 30.4107 31.2031 30.2596C31.2674 30.1058 31.2996 29.9352 31.2996 29.7478C31.2996 29.3814 31.1737 29.0989 30.922 28.9003C30.6703 28.6989 30.2913 28.5982 29.785 28.5982H27.7461V30.9813H29.785Z" fill="url(#paint3_linear_109_5295)"/>
<path d="M19.2671 27.4403H24.8512V28.6066H20.597V29.9156H24.3645V31.0106H20.597V32.8356H24.9393V33.9978H19.2671V27.4403Z" fill="url(#paint4_linear_109_5295)"/>
<path d="M11.2161 27.4403H12.6887L14.7487 32.4413L16.8086 27.4403H18.2812L15.4073 33.9978H14.09L11.2161 27.4403Z" fill="url(#paint5_linear_109_5295)"/>
<path d="M9.05545 27.4403H10.3938V33.9978H9.05545V27.4403Z" fill="url(#paint6_linear_109_5295)"/>
<path d="M3.62224 27.4403H5.0319L8.20365 33.9978H6.80657L6.28214 32.8944H2.45171L1.94406 33.9978H0.542786L3.62224 27.4403ZM5.75771 31.7994L4.33966 28.8206L2.95936 31.7994H5.75771Z" fill="url(#paint7_linear_109_5295)"/>
<defs>
<linearGradient id="paint0_linear_109_5295" x1="23.8519" y1="3.85945" x2="24.6195" y2="18.4442" gradientUnits="userSpaceOnUse">
<stop stop-color="#0940FF"/>
<stop offset="1" stop-color="#7204FD"/>
</linearGradient>
<linearGradient id="paint1_linear_109_5295" x1="0.45479" y1="29.3557" x2="49.1442" y2="30.8652" gradientUnits="userSpaceOnUse">
<stop stop-color="#EF67A4"/>
<stop offset="1" stop-color="#4604B5"/>
</linearGradient>
<linearGradient id="paint2_linear_109_5295" x1="0.454698" y1="29.3558" x2="49.1441" y2="30.8654" gradientUnits="userSpaceOnUse">
<stop stop-color="#EF67A4"/>
<stop offset="1" stop-color="#4604B5"/>
</linearGradient>
<linearGradient id="paint3_linear_109_5295" x1="0.454744" y1="29.3557" x2="49.1442" y2="30.8652" gradientUnits="userSpaceOnUse">
<stop stop-color="#EF67A4"/>
<stop offset="1" stop-color="#4604B5"/>
</linearGradient>
<linearGradient id="paint4_linear_109_5295" x1="0.454715" y1="29.3557" x2="49.1442" y2="30.8652" gradientUnits="userSpaceOnUse">
<stop stop-color="#EF67A4"/>
<stop offset="1" stop-color="#4604B5"/>
</linearGradient>
<linearGradient id="paint5_linear_109_5295" x1="0.454797" y1="29.3557" x2="49.1443" y2="30.8652" gradientUnits="userSpaceOnUse">
<stop stop-color="#EF67A4"/>
<stop offset="1" stop-color="#4604B5"/>
</linearGradient>
<linearGradient id="paint6_linear_109_5295" x1="0.454804" y1="29.3557" x2="49.1443" y2="30.8652" gradientUnits="userSpaceOnUse">
<stop stop-color="#EF67A4"/>
<stop offset="1" stop-color="#4604B5"/>
</linearGradient>
<linearGradient id="paint7_linear_109_5295" x1="0.454681" y1="29.3557" x2="49.1441" y2="30.8652" gradientUnits="userSpaceOnUse">
<stop stop-color="#EF67A4"/>
<stop offset="1" stop-color="#4604B5"/>
</linearGradient>
</defs>
</svg>
