<svg width="15" height="14" viewBox="0 0 15 14" fill="none" xmlns="http://www.w3.org/2000/svg">
<path fill-rule="evenodd" clip-rule="evenodd" d="M13.0792 0.529541C13.444 0.540279 13.79 0.693254 14.0435 0.955772C14.4016 1.29752 14.5643 1.79617 14.4767 2.28337L12.639 11.7862C12.5585 12.2283 12.277 12.6079 11.8774 12.8134L11.6468 12.9321C11.1664 13.1672 10.594 13.1076 10.1725 12.7784L8.02035 11.0805L6.90936 12.1286C6.68543 12.3429 6.38777 12.4629 6.07786 12.464C5.99432 12.4743 5.90984 12.4743 5.82631 12.464C5.38216 12.3636 5.02836 12.0286 4.90398 11.5906L3.99562 8.52311L0.984052 7.51693C0.684057 7.41953 0.486507 7.13322 0.501923 6.81819V6.36401C0.479529 6.06179 0.654493 5.7796 0.935141 5.66527L12.5342 0.641339C12.7065 0.567921 12.8919 0.529901 13.0792 0.529541ZM11.403 11.9051C11.5125 11.8461 11.5896 11.7408 11.6126 11.6186L13.4224 2.11573C13.4489 1.97711 13.4073 1.8342 13.3106 1.73143C13.2437 1.65399 13.1473 1.60833 13.0451 1.60565C13.0037 1.59585 12.9606 1.59585 12.9193 1.60565L1.55081 6.53875L4.70212 7.6148C4.79716 7.66007 4.90754 7.66007 5.00258 7.6148L10.285 4.28182C10.3873 4.23482 10.5084 4.26366 10.5785 4.3517C10.6283 4.39841 10.6541 4.46532 10.6484 4.53337C10.646 4.60272 10.6157 4.66819 10.5645 4.71504C9.76798 5.38583 8.43339 6.55971 6.20441 8.65592C6.13322 8.72309 6.09279 8.81658 6.09261 8.91446V11.381C6.12793 11.3791 6.16192 11.367 6.19044 11.3461L7.74164 9.8857C7.87124 9.77084 8.06621 9.77084 8.19582 9.8857L10.8231 11.9819C10.8797 12.0302 10.9513 12.0574 11.0257 12.0588C11.0767 12.0589 11.127 12.047 11.1724 12.0238L11.403 11.9051Z" fill="#A2A2A2"/>
</svg>
