<svg width="21" height="21" viewBox="0 0 21 21" fill="none" xmlns="http://www.w3.org/2000/svg">
<path d="M2.70081 4.50342L5.82581 1.37842H12.6983C13.3902 1.37842 13.9508 1.93467 13.9508 2.63092V3.87842H12.7008V3.25279C12.7013 3.17066 12.6855 3.08925 12.6543 3.01327C12.6231 2.93729 12.5771 2.86826 12.519 2.81018C12.461 2.75211 12.3919 2.70613 12.316 2.67493C12.24 2.64373 12.1586 2.62792 12.0764 2.62842H7.70081V5.75342H3.95081V14.504C3.95081 14.854 4.23018 15.1284 4.57518 15.1284H5.82581V16.3784H3.95331C3.78871 16.3788 3.62566 16.3467 3.47351 16.2839C3.32137 16.2211 3.18313 16.1289 3.06674 16.0125C2.95035 15.8961 2.85811 15.7579 2.79531 15.6057C2.73251 15.4536 2.7004 15.2905 2.70081 15.1259V4.50342ZM6.45081 2.62842L4.57581 4.50342H6.45081V2.62842ZM7.70081 8.25342L10.8258 5.12842H17.7039C18.3927 5.12842 18.9508 5.68529 18.9508 6.37279V17.6347C18.9506 17.7982 18.9183 17.9601 18.8555 18.1112C18.7927 18.2622 18.7008 18.3994 18.5851 18.5149C18.4693 18.6304 18.3318 18.7219 18.1807 18.7843C18.0295 18.8467 17.8675 18.8787 17.7039 18.8784H8.94769C8.78411 18.8786 8.6221 18.8465 8.47091 18.7841C8.31972 18.7216 8.18231 18.63 8.06653 18.5145C7.95075 18.3989 7.85886 18.2617 7.79611 18.1106C7.73336 17.9596 7.70097 17.7976 7.70081 17.634V8.25342ZM11.4508 6.37842L8.95081 8.87842H11.4508V6.37842ZM12.7008 10.1284H8.95081V17.0078C8.95138 17.0899 8.96812 17.171 9.00006 17.2466C9.032 17.3223 9.07852 17.3908 9.13696 17.4485C9.1954 17.5061 9.26462 17.5516 9.34067 17.5825C9.41672 17.6134 9.49811 17.629 9.58019 17.6284H17.0714C17.1535 17.629 17.2349 17.6134 17.3109 17.5825C17.387 17.5516 17.4562 17.5061 17.5147 17.4485C17.5731 17.3908 17.6196 17.3223 17.6516 17.2466C17.6835 17.171 17.7002 17.0899 17.7008 17.0078V6.99904C17.7002 6.91697 17.6835 6.83581 17.6516 6.7602C17.6196 6.68459 17.5731 6.61601 17.5147 6.55838C17.4562 6.50075 17.387 6.45519 17.3109 6.42432C17.2349 6.39344 17.1535 6.37784 17.0714 6.37842H12.7008V10.1284Z" fill="black"/>
</svg>
