<svg width="15" height="12" viewBox="0 0 15 12" fill="none" xmlns="http://www.w3.org/2000/svg">
<path fill-rule="evenodd" clip-rule="evenodd" d="M5.4375 0.34568L5.828 0.298096L5.9685 0.662064C5.9685 0.662064 6.113 1.0316 6.203 1.45328C6.77 1.37583 7.2325 1.35811 7.5 1.35811C7.93391 1.36144 8.36715 1.39323 8.797 1.45328C8.8865 1.0316 9.031 0.662064 9.031 0.662064L9.172 0.298096L9.5625 0.34568C9.5625 0.34568 11.315 0.53956 12.5935 1.57933H12.6095L12.625 1.59552C12.8976 1.84893 13.0241 2.1576 13.2053 2.60006L13.2345 2.67123C13.4673 3.24921 13.6655 3.84086 13.828 4.44298C14.199 5.80116 14.5 7.44635 14.5 8.95133V9.07788L14.4375 9.20444C13.9745 10.027 13.1525 10.551 12.3905 10.9129C11.629 11.2749 10.9705 11.4667 10.5155 11.4824L10.219 11.4981L10.0625 11.2293L9.5155 10.2483C8.9355 10.3809 8.2675 10.47 7.5 10.47C6.7325 10.47 6.0645 10.3809 5.4845 10.2483L4.9375 11.2293L4.7815 11.4981L4.4845 11.4824C4.0295 11.4667 3.371 11.2749 2.6095 10.9129C1.8475 10.551 1.0255 10.027 0.5625 9.20444L0.5 9.07788V8.95133C0.5 7.44635 0.801 5.80116 1.172 4.44298C1.3345 3.84086 1.53269 3.24921 1.7655 2.67123L1.79567 2.59771C1.9764 2.15692 2.10288 1.84844 2.375 1.59502L2.391 1.57983H2.406C3.6855 0.53956 5.4375 0.34568 5.4375 0.34568ZM5.19103 1.60889C5.17477 1.56112 5.15745 1.5103 5.14014 1.45323C4.67364 1.5479 3.78264 1.76557 3.04664 2.3548C3.04749 2.35523 3.03968 2.3685 3.02523 2.39308C2.97097 2.48538 2.82298 2.73713 2.68714 3.06654C2.47271 3.60341 2.29022 4.15279 2.14064 4.71174C1.80214 5.94741 1.53664 7.45238 1.51564 8.77715C1.82964 9.26362 2.41364 9.70251 3.03064 9.9951C3.41801 10.1808 3.82788 10.3139 4.24964 10.391L4.49964 9.96372C4.35114 9.90854 4.20464 9.84729 4.07764 9.78958C3.30814 9.44738 2.89014 9.07784 2.89014 9.07784L3.54664 8.31852C3.54664 8.31852 3.82764 8.57972 4.48414 8.87232C5.14014 9.16491 6.14214 9.4575 7.49964 9.4575C8.85714 9.4575 9.85964 9.16491 10.5151 8.87232C11.1716 8.57972 11.4526 8.31852 11.4526 8.31852L12.1091 9.07784C12.1091 9.07784 11.6911 9.44738 10.9216 9.78958C10.7946 9.84729 10.6481 9.90803 10.4996 9.96372L10.7496 10.3905C11.1712 10.3136 11.5809 10.1809 11.9681 9.99561C12.5856 9.70251 13.1691 9.26362 13.4841 8.77715C13.4626 7.45238 13.1971 5.94741 12.8591 4.71174C12.6831 4.06733 12.4881 3.49581 12.3121 3.06654C12.1763 2.73713 12.0283 2.48538 11.9741 2.39308C11.9596 2.3685 11.9518 2.35523 11.9526 2.3548C11.2166 1.76557 10.3256 1.5479 9.85914 1.45273C9.84088 1.51337 9.82261 1.56671 9.80557 1.61646L9.79664 1.64256C10.4431 1.80505 11.1326 2.05209 11.7651 2.44947L11.2341 3.30396C9.93714 2.48895 8.07364 2.3705 7.49964 2.3705C6.92514 2.3705 5.06214 2.48895 3.76514 3.30396L3.23414 2.44947C3.86664 2.05209 4.55614 1.80505 5.20264 1.64306L5.19103 1.60889ZM5.75001 4.90146C5.36351 4.90146 5.02151 5.1247 4.81251 5.40767C4.60351 5.69065 4.50001 6.03842 4.50001 6.4201C4.50001 6.80179 4.60351 7.14956 4.81251 7.43253C5.02151 7.71551 5.36351 7.93875 5.75001 7.93875C6.13651 7.93875 6.47851 7.71551 6.68751 7.43253C6.89651 7.14956 7.00001 6.80179 7.00001 6.4201C7.00001 6.03842 6.89651 5.69065 6.68751 5.40767C6.47851 5.1247 6.13651 4.90146 5.75001 4.90146ZM8.31251 5.40767C8.52151 5.1247 8.86351 4.90146 9.25001 4.90146C9.63651 4.90146 9.97851 5.1247 10.1875 5.40767C10.3965 5.69065 10.5 6.03842 10.5 6.4201C10.5 6.80179 10.3965 7.14956 10.1875 7.43253C9.97851 7.71551 9.63651 7.93875 9.25001 7.93875C8.86351 7.93875 8.52151 7.71551 8.31251 7.43253C8.10351 7.14956 8.00001 6.80179 8.00001 6.4201C8.00001 6.03842 8.10351 5.69065 8.31251 5.40767ZM5.75001 5.9136C5.77751 5.9136 5.81251 5.92373 5.87501 6.00877C5.93751 6.09331 6.00001 6.24163 6.00001 6.41982C6.00001 6.59801 5.93751 6.74633 5.87501 6.83137C5.81251 6.91591 5.77751 6.92603 5.75001 6.92603C5.72251 6.92603 5.68751 6.91591 5.62501 6.83087C5.54233 6.71025 5.49865 6.56663 5.50001 6.41982C5.50001 6.24163 5.56251 6.09331 5.62501 6.00827C5.68751 5.92373 5.72251 5.9136 5.75001 5.9136ZM9.37501 6.00877C9.31251 5.92373 9.27751 5.9136 9.25001 5.9136C9.22251 5.9136 9.18751 5.92373 9.12501 6.00827C9.06251 6.09331 9.00001 6.24163 9.00001 6.41982C8.99865 6.56663 9.04233 6.71025 9.12501 6.83087C9.18751 6.91591 9.22251 6.92603 9.25001 6.92603C9.27751 6.92603 9.31251 6.91591 9.37501 6.83137C9.43751 6.74633 9.50001 6.59801 9.50001 6.41982C9.50001 6.24163 9.43751 6.09331 9.37501 6.00877Z" fill="#A2A2A2"/>
</svg>
