<svg width="15" height="12" viewBox="0 0 15 12" fill="none" xmlns="http://www.w3.org/2000/svg">
<path d="M10.7003 0.26709C10.0787 0.268063 9.46656 0.418791 8.9156 0.706515C8.36465 0.994238 7.89113 1.41048 7.53514 1.92001C7.06286 1.24793 6.3889 0.743626 5.61088 0.480136C4.83286 0.216647 3.99116 0.207648 3.20768 0.454443C2.4242 0.701239 1.73962 1.19102 1.25307 1.85285C0.766527 2.51467 0.503276 3.3142 0.501446 4.13562V10.9161C0.499518 10.9289 0.499518 10.942 0.501446 10.9548V11.0005C0.49989 11.0169 0.49989 11.0334 0.501446 11.0497V11.0708C0.506322 11.0881 0.513415 11.1046 0.522547 11.1201V11.1412L0.557715 11.1904V11.2115L0.58585 11.2432L0.610468 11.2643V11.2819L0.64212 11.3065L0.705423 11.3487H0.884782L0.919951 11.3698H1.46155L1.50726 11.3452H1.53188C1.64442 11.2819 4.40866 9.80478 7.17994 11.3452H7.20104C7.23001 11.3605 7.26071 11.3723 7.29248 11.3803H7.34523C7.36973 11.3837 7.39459 11.3837 7.41909 11.3803H7.74264L7.81649 11.3487H7.84814C7.96068 11.2854 10.7249 9.8083 13.4962 11.3487H13.5208L13.6334 11.3944H13.6756C13.7304 11.4481 13.7948 11.4911 13.8655 11.521C13.9211 11.5194 13.9765 11.5123 14.0308 11.4999H14.073C14.1142 11.4872 14.1543 11.4707 14.1925 11.4507L14.2172 11.4155C14.2662 11.3878 14.3111 11.3535 14.3508 11.3135C14.3893 11.2748 14.4225 11.231 14.4493 11.1834V11.1658C14.4479 11.1553 14.4479 11.1447 14.4493 11.1341C14.4607 11.1116 14.4702 11.0881 14.4774 11.0638L14.4985 11.0005C14.5005 10.9783 14.5005 10.9559 14.4985 10.9337C14.5002 10.9091 14.5002 10.8844 14.4985 10.8598V4.13562C14.4987 3.12169 14.1008 2.14823 13.3904 1.42473C12.6801 0.701225 11.7141 0.285525 10.7003 0.26709ZM1.90818 9.76258V4.13562C1.90818 3.48271 2.16755 2.85655 2.62923 2.39487C3.0909 1.9332 3.71707 1.67383 4.36998 1.67383C5.02289 1.67383 5.64905 1.9332 6.11073 2.39487C6.5724 2.85655 6.83177 3.48271 6.83177 4.13562V9.73093C5.23314 9.19105 3.49974 9.20219 1.90818 9.76258ZM8.23851 9.76258V4.13562C8.23851 3.48271 8.49788 2.85655 8.95955 2.39487C9.42123 1.9332 10.0474 1.67383 10.7003 1.67383C11.3532 1.67383 11.9794 1.9332 12.4411 2.39487C12.9027 2.85655 13.1621 3.48271 13.1621 4.13562V9.73093C11.5635 9.19105 9.83007 9.20219 8.23851 9.76258Z" fill="#A2A2A2"/>
</svg>
