<svg width="25" height="25" viewBox="0 0 25 25" fill="none" xmlns="http://www.w3.org/2000/svg">
<path d="M12.8568 15.5823C14.3672 15.5823 15.5917 14.3578 15.5917 12.8474C15.5917 11.337 14.3672 10.1125 12.8568 10.1125C11.3464 10.1125 10.1219 11.337 10.1219 12.8474C10.1219 14.3578 11.3464 15.5823 12.8568 15.5823Z" stroke="white" stroke-width="2" stroke-linejoin="round"/>
<path d="M12.8762 19.1573C13.6659 19.1573 14.3062 19.7975 14.3062 20.5873C14.3062 21.3771 13.6659 22.0173 12.8762 22.0173C12.0864 22.0173 11.4462 21.3771 11.4462 20.5873C11.4462 19.7975 12.0864 19.1573 12.8762 19.1573Z" stroke="white" stroke-width="2" stroke-linejoin="round"/>
<path d="M12.8788 19.1571V15.9221" stroke="white" stroke-width="2" stroke-linejoin="round"/>
<path d="M12.8762 6.87734C13.6659 6.87734 14.3062 6.2371 14.3062 5.44734C14.3062 4.65757 13.6659 4.01733 12.8762 4.01733C12.0864 4.01733 11.4462 4.65757 11.4462 5.44734C11.4462 6.2371 12.0864 6.87734 12.8762 6.87734Z" stroke="white" stroke-width="2" stroke-linejoin="round"/>
<path d="M12.8788 6.87671V10.1115" stroke="white" stroke-width="2" stroke-linejoin="round"/>
<path d="M6.73585 13.0176C6.73585 13.8073 6.09562 14.4476 5.30586 14.4476C4.51608 14.4476 3.87585 13.8073 3.87585 13.0176C3.87585 12.2278 4.51608 11.5876 5.30586 11.5876C6.09562 11.5876 6.73585 12.2278 6.73585 13.0176Z" stroke="white" stroke-width="2" stroke-linejoin="round"/>
<path d="M6.73523 13.0203H9.97008" stroke="white" stroke-width="2" stroke-linejoin="round"/>
<path d="M19.0158 13.0176C19.0158 13.8073 19.6561 14.4476 20.4459 14.4476C21.2356 14.4476 21.8759 13.8073 21.8759 13.0176C21.8759 12.2278 21.2356 11.5876 20.4459 11.5876C19.6561 11.5876 19.0158 12.2278 19.0158 13.0176Z" stroke="white" stroke-width="2" stroke-linejoin="round"/>
<path d="M19.014 13.0203H15.7792" stroke="white" stroke-width="2" stroke-linejoin="round"/>
<path d="M8.53239 17.3587C9.09084 17.9171 9.09084 18.8225 8.53239 19.381C7.97394 19.9394 7.0685 19.9394 6.51005 19.381C5.9516 18.8225 5.9516 17.9171 6.51005 17.3587C7.0685 16.8002 7.97394 16.8002 8.53239 17.3587Z" stroke="white" stroke-width="2" stroke-linejoin="round"/>
<path d="M8.53699 17.3607L10.8243 15.0732" stroke="white" stroke-width="2" stroke-linejoin="round"/>
<path d="M17.2172 8.67531C17.7757 9.23376 18.6811 9.23376 19.2395 8.67531C19.798 8.11684 19.798 7.21142 19.2395 6.65297C18.6811 6.09452 17.7757 6.09452 17.2172 6.65297C16.6588 7.21141 16.6588 8.11684 17.2172 8.67531Z" stroke="white" stroke-width="2" stroke-linejoin="round"/>
<path d="M17.217 8.67847L14.9295 10.9659" stroke="white" stroke-width="2" stroke-linejoin="round"/>
<path d="M8.53451 8.67531C7.97606 9.23376 7.07061 9.23376 6.51216 8.67531C5.95371 8.11684 5.95371 7.21142 6.51216 6.65297C7.07061 6.09452 7.97606 6.09452 8.53451 6.65297C9.09296 7.21142 9.09296 8.11684 8.53451 8.67531Z" stroke="white" stroke-width="2" stroke-linejoin="round"/>
<path d="M8.53113 8.67773L10.8185 10.9651" stroke="white" stroke-width="2" stroke-linejoin="round"/>
<path d="M17.2164 17.3587C16.658 17.9171 16.658 18.8225 17.2164 19.381C17.7748 19.9394 18.6803 19.9394 19.2387 19.381C19.7972 18.8225 19.7972 17.9171 19.2387 17.3587C18.6803 16.8002 17.7749 16.8002 17.2164 17.3587Z" stroke="white" stroke-width="2" stroke-linejoin="round"/>
<path d="M17.214 17.3614L14.9266 15.074" stroke="white" stroke-width="2" stroke-linejoin="round"/>
</svg>
