<svg width="15" height="12" viewBox="0 0 15 12" fill="none" xmlns="http://www.w3.org/2000/svg">
<path d="M13.3826 1.61423L14.5 0.534561V0.298096H10.6299L7.87187 7.2344L4.73464 0.298096H0.676823V0.534561L1.98203 2.12199C2.10964 2.23931 2.17526 2.41161 2.15885 2.58392V8.82183C2.19896 9.04729 2.12786 9.27643 1.97109 9.43957L0.5 11.2415V11.4743H4.66719V11.2378L3.19792 9.4414C3.03932 9.27826 2.96276 9.05096 2.99557 8.82366V3.42713L6.65417 11.4779H7.07891L10.2253 3.42713V9.84101C10.2253 10.0097 10.2253 10.0445 10.1159 10.1563L8.98385 11.2616V11.4981H14.4745V11.2616L13.3826 10.182C13.2878 10.1086 13.2385 9.98582 13.2586 9.86667V1.92952C13.2385 1.81037 13.2878 1.68756 13.3826 1.61423Z" fill="#A2A2A2"/>
</svg>
