<svg width="49" height="49" viewBox="0 0 49 49" fill="none" xmlns="http://www.w3.org/2000/svg">
<path d="M33.699 33.3592H41.0836V25.9746H48.4683V37.0515H41.0836V40.7438H33.699V37.0515H26.3144V25.9746H33.699V33.3592ZM0.468262 25.9746H22.6221V48.1284H0.468262V25.9746ZM7.85288 33.3592V40.7438H15.2375V33.3592H7.85288ZM0.468262 0.128418H22.6221V22.2823H0.468262V0.128418ZM7.85288 7.51303V14.8976H15.2375V7.51303H7.85288ZM26.3144 0.128418H48.4683V22.2823H26.3144V0.128418ZM33.699 7.51303V14.8976H41.0836V7.51303H33.699ZM41.0836 40.7438H48.4683V48.1284H41.0836V40.7438ZM26.3144 40.7438H33.699V48.1284H26.3144V40.7438Z" fill="white"/>
</svg>
